<svg width="24" height="24" viewBox="0 0 24 24" fill="none" xmlns="http://www.w3.org/2000/svg">
<path d="M0.999632 22.7276L7.19814 16.7678" stroke="white" stroke-width="1.5" stroke-linecap="round" stroke-linejoin="round"/>
<path d="M13.5958 20.3136C9.02379 19.2311 4.74482 14.9084 3.75971 10.3771C3.60377 9.65981 3.5258 9.30116 3.77166 8.72388C4.01753 8.1466 4.31133 7.97067 4.89894 7.61881C6.22726 6.82341 7.65792 6.58301 9.13776 6.73046C11.2142 6.93735 12.2525 7.04079 12.7743 6.78097C13.296 6.52114 13.6561 5.90295 14.3761 4.66656L15.2883 3.10036C15.8891 2.06861 16.1896 1.55274 16.8842 1.31639C17.5789 1.08004 17.9933 1.23349 18.822 1.54038C20.7602 2.25808 22.2516 3.76471 22.9317 5.692C23.2226 6.51615 23.368 6.92822 23.1111 7.60679C22.8542 8.28535 22.3234 8.56861 21.262 9.13513L19.6136 10.0149C18.3441 10.6925 17.7094 11.0313 17.4329 11.5439C17.1565 12.0566 17.2422 13.0598 17.4136 15.0663C17.5396 16.5419 17.2735 17.9549 16.4226 19.26C16.0508 19.8302 15.8649 20.1153 15.2735 20.343C14.682 20.5708 14.3199 20.4851 13.5958 20.3136Z" stroke="white" stroke-width="1.5" stroke-linecap="round" stroke-linejoin="round"/>
</svg>
