<svg width="25" height="24" viewBox="0 0 25 24" fill="none" xmlns="http://www.w3.org/2000/svg">
<path d="M9.5 22H15.5C20.5 22 22.5 20 22.5 15V9C22.5 4 20.5 2 15.5 2H9.5C4.5 2 2.5 4 2.5 9V15C2.5 20 4.5 22 9.5 22Z" stroke="#FFAA0F" stroke-width="1.5" stroke-linecap="round" stroke-linejoin="round"/>
<path d="M16.0703 18.5001V14.6001" stroke="#FFAA0F" stroke-width="1.5" stroke-miterlimit="10" stroke-linecap="round" stroke-linejoin="round"/>
<path d="M16.0703 7.45V5.5" stroke="#FFAA0F" stroke-width="1.5" stroke-miterlimit="10" stroke-linecap="round" stroke-linejoin="round"/>
<path d="M16.0697 12.65C17.5057 12.65 18.6697 11.4859 18.6697 10.05C18.6697 8.61401 17.5057 7.44995 16.0697 7.44995C14.6338 7.44995 13.4697 8.61401 13.4697 10.05C13.4697 11.4859 14.6338 12.65 16.0697 12.65Z" stroke="#FFAA0F" stroke-width="1.5" stroke-miterlimit="10" stroke-linecap="round" stroke-linejoin="round"/>
<path d="M8.92969 18.5V16.55" stroke="#FFAA0F" stroke-width="1.5" stroke-miterlimit="10" stroke-linecap="round" stroke-linejoin="round"/>
<path d="M8.92969 9.4V5.5" stroke="#FFAA0F" stroke-width="1.5" stroke-miterlimit="10" stroke-linecap="round" stroke-linejoin="round"/>
<path d="M8.93008 16.5501C10.366 16.5501 11.5301 15.386 11.5301 13.9501C11.5301 12.5142 10.366 11.3501 8.93008 11.3501C7.49414 11.3501 6.33008 12.5142 6.33008 13.9501C6.33008 15.386 7.49414 16.5501 8.93008 16.5501Z" stroke="#FFAA0F" stroke-width="1.5" stroke-miterlimit="10" stroke-linecap="round" stroke-linejoin="round"/>
</svg>
