<svg width="29" height="29" viewBox="0 0 29 29" fill="none" xmlns="http://www.w3.org/2000/svg">
<path d="M8.3125 8.3125H8.32315M15.4268 8.3125H15.4375" stroke="white" stroke-width="2" stroke-linecap="round" stroke-linejoin="round"/>
<path d="M21.3644 17.2188H21.375M16.625 17.2188H16.6356" stroke="white" stroke-width="2" stroke-linecap="round" stroke-linejoin="round"/>
<path d="M11.875 19C11.875 22.2792 15.065 24.9375 19 24.9375C20.0773 24.9375 21.0987 24.7383 22.0141 24.3816C22.2379 24.2944 22.4808 24.2631 22.7169 24.3068L26.125 24.9375L25.3511 22.5272C25.2381 22.1752 25.3027 21.7945 25.4808 21.4706C25.8944 20.7183 26.125 19.8816 26.125 19C26.125 15.7208 22.935 13.0625 19 13.0625C15.065 13.0625 11.875 15.7208 11.875 19Z" stroke="white" stroke-width="1.5" stroke-linejoin="round"/>
<path d="M21.2243 13.3576C21.3233 12.8765 21.375 12.381 21.375 11.875C21.375 7.28413 17.1217 3.5625 11.875 3.5625C6.62829 3.5625 2.375 7.28413 2.375 11.875C2.375 13.1959 2.72713 14.4449 3.35374 15.554C3.52809 15.8626 3.58591 16.2275 3.48226 16.5665L2.375 20.1875L7.02304 19.2843C7.26967 19.2364 7.52425 19.2699 7.75579 19.3675C9.04353 19.9099 10.4991 20.2061 12.0173 20.1866" stroke="white" stroke-width="1.5" stroke-linejoin="round"/>
</svg>
